{
  "accessors": [
    {
      "bufferView": 2,
      "componentType": 5126,
      "count": 736,
      "max": [
        156.7353057861328,
        48.38801574707031,
        66.23109436035156
      ],
      "min": [
        -156.73529052734375,
        -48.38801574707031,
        -66.2311019897461
      ],
      "type": "VEC3"
    },
    {
      "bufferView": 2,
      "byteOffset": 8832,
      "componentType": 5126,
      "count": 736,
      "max": [
        1.0,
        1.0,
        1.0
      ],
      "min": [
        -1.0,
        -1.0,
        -1.0
      ],
      "type": "VEC3"
    },
    {
      "bufferView": 1,
      "componentType": 5126,
      "count": 736,
      "max": [
        1.0000001192092896,
        0.9794521927833557
      ],
      "min": [
        -1.1920928955078125e-07,
        0.0
      ],
      "type": "VEC2"
    },
    {
      "bufferView": 0,
      "componentType": 5125,
      "count": 1752,
      "type": "SCALAR"
    },
    {
      "bufferView": 2,
      "byteOffset": 17664,
      "componentType": 5126,
      "count": 164,
      "max": [
        59.42652893066406,
        27.88409423828125,
        29.335235595703125
      ],
      "min": [
        -59.42652893066406,
        -27.88409423828125,
        -29.335237503051758
      ],
      "type": "VEC3"
    },
    {
      "bufferView": 2,
      "byteOffset": 19632,
      "componentType": 5126,
      "count": 164,
      "max": [
        0.7909591794013977,
        1.0,
        0.9797844886779785
      ],
      "min": [
        -0.5399245023727417,
        -0.9274739027023315,
        -0.44721364974975586
      ],
      "type": "VEC3"
    },
    {
      "bufferView": 1,
      "byteOffset": 5888,
      "componentType": 5126,
      "count": 164,
      "max": [
        1.0,
        0.9295022487640381
      ],
      "min": [
        0.06507483124732971,
        0.07049766182899475
      ],
      "type": "VEC2"
    },
    {
      "bufferView": 0,
      "byteOffset": 7008,
      "componentType": 5125,
      "count": 522,
      "type": "SCALAR"
    },
    {
      "bufferView": 2,
      "byteOffset": 21600,
      "componentType": 5126,
      "count": 800,
      "max": [
        195.82028198242188,
        33.93259811401367,
        57.61198425292969
      ],
      "min": [
        -195.8202667236328,
        -33.93259811401367,
        -57.61198425292969
      ],
      "type": "VEC3"
    },
    {
      "bufferView": 2,
      "byteOffset": 31200,
      "componentType": 5126,
      "count": 800,
      "max": [
        1.0,
        1.0,
        1.0
      ],
      "min": [
        -0.9333465099334717,
        -1.0,
        -0.9999246001243591
      ],
      "type": "VEC3"
    },
    {
      "bufferView": 1,
      "byteOffset": 7200,
      "componentType": 5126,
      "count": 800,
      "max": [
        0.9982025623321533,
        1.0
      ],
      "min": [
        0.0,
        0.0
      ],
      "type": "VEC2"
    },
    {
      "bufferView": 0,
      "byteOffset": 9096,
      "componentType": 5125,
      "count": 3084,
      "type": "SCALAR"
    },
    {
      "bufferView": 2,
      "byteOffset": 40800,
      "componentType": 5126,
      "count": 64,
      "max": [
        212.0,
        7.409416198730469,
        4.687591552734375
      ],
      "min": [
        -212.0,
        -7.409416198730469,
        -4.687583923339844
      ],
      "type": "VEC3"
    },
    {
      "bufferView": 2,
      "byteOffset": 41568,
      "componentType": 5126,
      "count": 64,
      "max": [
        1.0,
        1.0,
        0.9992448687553406
      ],
      "min": [
        -1.0,
        -1.0,
        -0.9992419481277466
      ],
      "type": "VEC3"
    },
    {
      "bufferView": 1,
      "byteOffset": 13600,
      "componentType": 5126,
      "count": 64,
      "max": [
        0.9999999403953552,
        1.0
      ],
      "min": [
        5.960464477539063e-08,
        0.0
      ],
      "type": "VEC2"
    },
    {
      "bufferView": 0,
      "byteOffset": 21432,
      "componentType": 5125,
      "count": 120,
      "type": "SCALAR"
    },
    {
      "bufferView": 2,
      "byteOffset": 42336,
      "componentType": 5126,
      "count": 72,
      "max": [
        31.67327880859375,
        0.4536399841308594,
        14.330039978027344
      ],
      "min": [
        -31.67327880859375,
        -0.4536399841308594,
        -14.330039978027344
      ],
      "type": "VEC3"
    },
    {
      "bufferView": 2,
      "byteOffset": 43200,
      "componentType": 5126,
      "count": 72,
      "max": [
        0.97517991065979,
        1.0,
        0.9850817918777466
      ],
      "min": [
        -0.9751783013343811,
        -1.0,
        -0.9850818514823914
      ],
      "type": "VEC3"
    },
    {
      "bufferView": 1,
      "byteOffset": 14112,
      "componentType": 5126,
      "count": 72,
      "max": [
        1.0,
        1.0
      ],
      "min": [
        0.0,
        0.0
      ],
      "type": "VEC2"
    },
    {
      "bufferView": 0,
      "byteOffset": 21912,
      "componentType": 5125,
      "count": 156,
      "type": "SCALAR"
    },
    {
      "bufferView": 2,
      "byteOffset": 44064,
      "componentType": 5126,
      "count": 176,
      "max": [
        55.19258117675781,
        27.88409423828125,
        39.012840270996094
      ],
      "min": [
        -55.19258117675781,
        -27.88409423828125,
        -39.012840270996094
      ],
      "type": "VEC3"
    },
    {
      "bufferView": 2,
      "byteOffset": 46176,
      "componentType": 5126,
      "count": 176,
      "max": [
        0.7567357420921326,
        1.0,
        1.0
      ],
      "min": [
        -0.7071083188056946,
        -0.7682206034660339,
        -0.6257454752922058
      ],
      "type": "VEC3"
    },
    {
      "bufferView": 1,
      "byteOffset": 14688,
      "componentType": 5126,
      "count": 176,
      "max": [
        1.0,
        0.9999998807907104
      ],
      "min": [
        0.0,
        0.0
      ],
      "type": "VEC2"
    },
    {
      "bufferView": 0,
      "byteOffset": 22536,
      "componentType": 5125,
      "count": 450,
      "type": "SCALAR"
    }
  ],
  "asset": {
    "extras": {
      "author": "3DDomino (https://sketchfab.com/3DDomino)",
      "license": "CC-BY-4.0 (http://creativecommons.org/licenses/by/4.0/)",
      "source": "https://sketchfab.com/3d-models/helicopter-bell-20d80ac1480b42eb855b8136a4c411b4",
      "title": "Helicopter bell"
    },
    "generator": "Sketchfab-12.68.0",
    "version": "2.0"
  },
  "bufferViews": [
    {
      "buffer": 0,
      "byteLength": 24336,
      "name": "floatBufferViews",
      "target": 34963
    },
    {
      "buffer": 0,
      "byteLength": 16096,
      "byteOffset": 24336,
      "byteStride": 8,
      "name": "floatBufferViews",
      "target": 34962
    },
    {
      "buffer": 0,
      "byteLength": 48288,
      "byteOffset": 40432,
      "byteStride": 12,
      "name": "floatBufferViews",
      "target": 34962
    }
  ],
  "buffers": [
    {
      "byteLength": 88720,
      "uri": "scene.bin"
    }
  ],
  "materials": [
    {
      "doubleSided": true,
      "name": "Layer0__0",
      "pbrMetallicRoughness": {
        "baseColorFactor": [
          0.20594136762876553,
          0.2039800952810531,
          0.2039800952810531,
          1.0
        ],
        "roughnessFactor": 0.396921304318747
      }
    },
    {
      "alphaMode": "BLEND",
      "doubleSided": true,
      "name": "01_-_Default",
      "pbrMetallicRoughness": {
        "baseColorFactor": [
          1.0,
          1.0,
          1.0,
          0.22667645574545964
        ],
        "metallicFactor": 0.28139801421544486,
        "roughnessFactor": 0.37203211547464865
      }
    },
    {
      "doubleSided": true,
      "name": "Material_25",
      "pbrMetallicRoughness": {
        "baseColorFactor": [
          0.23509307101688112,
          0.22623773024619645,
          0.000357628903398251,
          1.0
        ],
        "metallicFactor": 0.06251178033550396
      }
    },
    {
      "doubleSided": true,
      "name": "08_-_Default",
      "pbrMetallicRoughness": {
        "baseColorFactor": [
          0.0,
          0.0,
          0.0,
          1.0
        ],
        "metallicFactor": 0.0,
        "roughnessFactor": 0.8929713596497552
      }
    }
  ],
  "meshes": [
    {
      "name": "Layer:0__0",
      "primitives": [
        {
          "attributes": {
            "NORMAL": 1,
            "POSITION": 0,
            "TEXCOORD_0": 2
          },
          "indices": 3,
          "material": 0,
          "mode": 4
        }
      ]
    },
    {
      "name": "Layer:0_01 - Default_0",
      "primitives": [
        {
          "attributes": {
            "NORMAL": 5,
            "POSITION": 4,
            "TEXCOORD_0": 6
          },
          "indices": 7,
          "material": 1,
          "mode": 4
        }
      ]
    },
    {
      "name": "Layer:0_Material #25_0",
      "primitives": [
        {
          "attributes": {
            "NORMAL": 9,
            "POSITION": 8,
            "TEXCOORD_0": 10
          },
          "indices": 11,
          "material": 2,
          "mode": 4
        }
      ]
    },
    {
      "name": "Layer:0__0",
      "primitives": [
        {
          "attributes": {
            "NORMAL": 13,
            "POSITION": 12,
            "TEXCOORD_0": 14
          },
          "indices": 15,
          "material": 0,
          "mode": 4
        }
      ]
    },
    {
      "name": "Layer:0__0",
      "primitives": [
        {
          "attributes": {
            "NORMAL": 17,
            "POSITION": 16,
            "TEXCOORD_0": 18
          },
          "indices": 19,
          "material": 0,
          "mode": 4
        }
      ]
    },
    {
      "name": "Layer:0_08 - Default_0",
      "primitives": [
        {
          "attributes": {
            "NORMAL": 21,
            "POSITION": 20,
            "TEXCOORD_0": 22
          },
          "indices": 23,
          "material": 3,
          "mode": 4
        }
      ]
    }
  ],
  "nodes": [
    {
      "children": [
        1
      ],
      "matrix": [
        1.0,
        0.0,
        0.0,
        0.0,
        0.0,
        2.220446049250313e-16,
        -1.0,
        0.0,
        0.0,
        1.0,
        2.220446049250313e-16,
        0.0,
        0.0,
        0.0,
        0.0,
        1.0
      ],
      "name": "Sketchfab_model"
    },
    {
      "children": [
        2
      ],
      "matrix": [
        1.0,
        0.0,
        0.0,
        0.0,
        0.0,
        0.0,
        1.0,
        0.0,
        0.0,
        -1.0,
        0.0,
        0.0,
        0.0,
        0.0,
        0.0,
        1.0
      ],
      "name": "675e6631a84d4f34bd82e416ae206cc8.fbx"
    },
    {
      "children": [
        3,
        5,
        7,
        9,
        11,
        13
      ],
      "name": "RootNode"
    },
    {
      "children": [
        4
      ],
      "matrix": [
        1.0,
        0.0,
        0.0,
        0.0,
        0.0,
        2.220446049250313e-16,
        -1.0,
        0.0,
        0.0,
        1.0,
        2.220446049250313e-16,
        0.0,
        -203.10064697265625,
        66.53352355957031,
        -0.1543712615966797,
        1.0
      ],
      "name": "Layer:0"
    },
    {
      "mesh": 0,
      "name": "Layer:0__0"
    },
    {
      "children": [
        6
      ],
      "matrix": [
        1.0,
        0.0,
        0.0,
        0.0,
        0.0,
        2.220446049250313e-16,
        -1.0,
        0.0,
        0.0,
        1.0,
        2.220446049250313e-16,
        0.0,
        -61.032958984375,
        51.412269592285156,
        -0.21535873413085938,
        1.0
      ],
      "name": "Layer:0"
    },
    {
      "mesh": 1,
      "name": "Layer:0_01 - Default_0"
    },
    {
      "children": [
        8
      ],
      "matrix": [
        1.0,
        0.0,
        0.0,
        0.0,
        0.0,
        2.220446049250313e-16,
        -1.0,
        0.0,
        0.0,
        1.0,
        2.220446049250313e-16,
        0.0,
        -195.91456604003906,
        79.08416748046875,
        -0.215362548828125,
        1.0
      ],
      "name": "Layer:0"
    },
    {
      "mesh": 2,
      "name": "Layer:0_Material #25_0"
    },
    {
      "children": [
        10
      ],
      "matrix": [
        1.0,
        0.0,
        0.0,
        0.0,
        0.0,
        2.220446049250313e-16,
        -1.0,
        0.0,
        0.0,
        1.0,
        2.220446049250313e-16,
        0.0,
        -115.62068939208984,
        130.19400024414063,
        -0.15437793731689453,
        1.0
      ],
      "name": "Layer:0"
    },
    {
      "mesh": 3,
      "name": "Layer:0__0"
    },
    {
      "children": [
        12
      ],
      "matrix": [
        1.0,
        0.0,
        0.0,
        0.0,
        0.0,
        2.220446049250313e-16,
        -1.0,
        0.0,
        0.0,
        1.0,
        2.220446049250313e-16,
        0.0,
        -356.9158630371094,
        86.33300018310547,
        -8.168641090393066,
        1.0
      ],
      "name": "Layer:0"
    },
    {
      "mesh": 4,
      "name": "Layer:0__0"
    },
    {
      "children": [
        14
      ],
      "matrix": [
        1.0,
        0.0,
        0.0,
        0.0,
        0.0,
        2.220446049250313e-16,
        -1.0,
        0.0,
        0.0,
        1.0,
        2.220446049250313e-16,
        0.0,
        -99.13851928710938,
        66.53352355957031,
        -0.21535873413085938,
        1.0
      ],
      "name": "Layer:0"
    },
    {
      "mesh": 5,
      "name": "Layer:0_08 - Default_0"
    }
  ],
  "scene": 0,
  "scenes": [
    {
      "name": "Sketchfab_Scene",
      "nodes": [
        0
      ]
    }
  ]
}
